PathFileType	4	(X/Y/Z)	C:/Users/beibeiliu/ov580/test_trc/User2\sequence.32_training_dense_left.trc
DataRate	CameraRate	NumFrames	NumMarkers	Units	OrigDataRate	OrigDataStartFrame	OrigNumFrames
120	120	7	19	mm	120	1	111
Frame#	Time	ThumbCMC			ThumbMCP			ThumbIP			ThumbTip			IndexMCP			IndexPIP			IndexTip			MiddleMCP			MiddlePIP			MiddleTip			RingMCP			RingPIP			RingTip			PinkyMCP			PinkyPIP			PinkyTip			BackHand1			BackHand2			BackHand3	
		X0	Y0	Z0	X1	Y1	Z1	X2	Y2	Z2	X3	Y3	Z3	X4	Y4	Z4	X5	Y5	Z5	X6	Y6	Z6	X7	Y7	Z7	X8	Y8	Z8	X9	Y9	Z9	X10	Y10	Z10	X11	Y11	Z11	X12	Y12	Z12	X13	Y13	Z13	X14	Y14	Z14	X15	Y15	Z15	X16	Y16	Z16	X17	Y17	Z17	X18	Y18	Z18	
0	0	-215.807	20.0718	-28.0295	-211.437	32.5067	-55.227	-209.756	49.3421	-87.0375	-207.754	57.9662	-111.102	-268.748	46.232	-94.9166	-276.095	38.4367	-120.42	-289.098	27.2492	-150.088	-287.104	25.924	-91.0921	-293.752	0.215476	-111.06	-298.682	-30.6237	-125.049	-299.782	6.61947	-79.6191	-298.73	-16.9649	-88.4338	-291.093	-47.1026	-93.4365	-312.978	-2.04168	-62.1314	-302.727	-26.2664	-67.4776	-281.834	-48.3043	-66.8522	-287.987	40.3614	-25.2187	-270.481	29.9666	10.5388	-247.797	42.1398	-20.5576	
1	0.00833333	-204.052	26.228	-20.8031	-193.845	42.9312	-43.7672	-191.697	60.1	-71.3902	-182.274	73.2291	-94.4112	-246.998	65.2516	-86.8773	-253.548	64.0692	-117.385	-261.502	53.9902	-147.187	-266.107	42.8175	-91.1714	-270.292	24.1444	-112.793	-274.45	-7.4562	-132.768	-284.664	22.3411	-79.9105	-277.333	-0.625083	-94.2914	-267.802	-35.0581	-102.82	-293.511	13.6159	-64.144	-282.064	-18.3044	-75.2138	-267.856	-38.3665	-75.0278	-274.984	43.7173	-18.4067	-260.636	33.5952	12.0779	-234.404	47.4134	-14.4288	
2	0.0166667	-187.698	19.8286	-13.8918	-175.89	35.2247	-34.9069	-167.248	58.3183	-66.0134	-159.901	65.0927	-83.4003	-220.534	63.4285	-87.9514	-228.081	62.4901	-112.205	-229.611	55.9308	-142.288	-246.4	43.0477	-87.0304	-247.455	22.5738	-113.439	-247.692	-5.19398	-133.81	-259.686	23.9865	-80.219	-255.322	-6.62711	-96.5135	-246.833	-37.119	-100.019	-275.553	10.7937	-67.8459	-264.498	-18.5173	-76.6161	-247.983	-39.6316	-73.9273	-259.602	41.206	-18.1258	-246.64	28.4311	12.0772	-219.478	41.2972	-8.33579	
3	0.025	-171.647	13.0093	-14.8567	-163.081	22.1965	-36.6979	-152.23	37.5368	-66.034	-141.925	42.9957	-84.7492	-205.699	39.8638	-90.7193	-206.351	35.0466	-119.592	-215.172	24.2519	-141.608	-226.523	22.3188	-87.3355	-229.072	-5.14714	-112.189	-230.315	-35.8394	-125.333	-241.963	2.01955	-81.1357	-238.08	-28.1457	-90.0521	-226.56	-54.232	-88.2616	-255.803	-4.01133	-64.9096	-243.613	-34.022	-72.7365	-228.764	-57.2264	-66.323	-243.475	30.1377	-23.7131	-236.921	22.0484	11.4731	-204.189	33.45	-12.0974	
4	0.0333333	-165.153	7.37292	-10.1659	-154.158	15.6216	-39.4548	-141.365	24.179	-68.7535	-131.884	27.4257	-90.6841	-191.642	15.2876	-92.329	-193.605	2.17826	-115.472	-194.4	-14.9363	-139.823	-211.206	-8.27383	-91.0071	-207.842	-39.7044	-103.036	-205.646	-68.5109	-107.867	-231.103	-25.1082	-74.2231	-216.718	-55.226	-77.6525	-202.625	-80.8142	-64.5184	-243.934	-32.7131	-59.658	-224.037	-54.2248	-59.6631	-205.135	-73.5479	-46.4794	-236.184	18.0723	-27.1879	-224.653	19.9779	5.96753	-197.78	26.5329	-16.4436	
5	0.0416667	-167.601	18.9261	-14.8862	-157.026	23.763	-40.1945	-149.033	28.1211	-74.9911	-136.062	30.6163	-95.3887	-185.237	0.690823	-92.3421	-182.897	-22.4915	-114.095	-174.425	-40.3325	-130.908	-201.182	-29.1913	-83.708	-186.081	-55.86	-89.8494	-175.067	-87.202	-87.3288	-213.471	-45.9715	-66.5764	-192.812	-70.9086	-61.1221	-173.971	-86.4549	-45.9039	-223.226	-51.7474	-52.4552	-200.723	-66.1594	-44.7437	-178.557	-74.9812	-25.6311	-232.446	4.60105	-28.9893	-229.612	13.0934	3.30949	-199.784	26.4203	-21.3433	
6	0.05	-179.923	33.6055	-19.0972	-170.28	37.8129	-46.3498	-161.118	35.3266	-75.6414	-151.815	37.6683	-98.2538	-181.247	-11.9391	-93.402	-166.019	-24.1183	-105.897	-151.328	-46.1959	-119.785	-184.43	-38.4358	-77.125	-160.953	-54.2802	-77.5563	-134.339	-78.9377	-70.4286	-190.006	-49.8697	-59.2979	-164.663	-65.5978	-48.7594	-135.102	-71.7688	-31.5968	-198.141	-62.8227	-40.032	-169.094	-64.3781	-25.9105	-149.668	-59.8976	-9.26318	-229.905	-11.3556	-30.5872	-237.235	2.68948	0.886701	-215.407	22.2317	-25.5238	
